<?xml version="1.0" encoding="UTF-8" standalone="no"?>
<!DOCTYPE svg PUBLIC "-//W3C//DTD SVG 1.1//EN"
 "http://www.w3.org/Graphics/SVG/1.1/DTD/svg11.dtd">
<!-- Generated by graphviz version 2.44.1 (20200629.0846)
 -->
<!-- Title: g Pages: 1 -->
<svg width="1265pt" height="3350pt"
 viewBox="0.00 0.00 1264.53 3349.80" xmlns="http://www.w3.org/2000/svg" xmlns:xlink="http://www.w3.org/1999/xlink">
<g id="graph0" class="graph" transform="scale(1 1) rotate(0) translate(4 3345.8)">
<title>g</title>
<polygon fill="white" stroke="transparent" points="-4,4 -4,-3345.8 1260.53,-3345.8 1260.53,4 -4,4"/>
<g id="clust1" class="cluster">
<title>cluster_108685930</title>
<polygon fill="#ececec" stroke="black" points="8,-8 8,-3333.8 1236,-3333.8 1236,-8 8,-8"/>
<text text-anchor="middle" x="30.78" y="-3317.2" font-family="Times New Roman,serif" font-size="14.00">robot</text>
</g>
<g id="clust2" class="cluster">
<title>cluster_1301829236</title>
<polygon fill="#d8d8d8" stroke="black" points="16,-1853 16,-2231.8 1140,-2231.8 1140,-1853 16,-1853"/>
<text text-anchor="middle" x="54.33" y="-2215.2" font-family="Times New Roman,serif" font-size="14.00">commands</text>
</g>
<g id="clust3" class="cluster">
<title>cluster_1699707880</title>
<polygon fill="#d8d8d8" stroke="black" points="472,-16 472,-1801.4 1046,-1801.4 1046,-16 472,-16"/>
<text text-anchor="middle" x="511.89" y="-1784.8" font-family="Times New Roman,serif" font-size="14.00">subsystems</text>
</g>
<!-- Robot529299155 -->
<g id="node1" class="node">
<title>Robot529299155</title>
<polygon fill="#ffffff" stroke="transparent" points="989.5,-3301 720.5,-3301 720.5,-2891 989.5,-2891 989.5,-3301"/>
<text text-anchor="start" x="726" y="-3283.4" font-family="Times New Roman,serif" font-size="14.00">(C)Robot</text>
<text text-anchor="start" x="725.82" y="-3259.4" font-family="Times New Roman,serif" font-size="14.00">&#45; &#160;&#160;m_autonomousCommand: Command [0..1]</text>
<text text-anchor="start" x="726" y="-3235.4" font-family="Times New Roman,serif" font-size="14.00">&#45; &#160;&#160;m_robotContainer: RobotContainer [0..1]</text>
<text text-anchor="start" x="726" y="-3211.4" font-family="Times New Roman,serif" font-size="14.00">+ autonomousExit()</text>
<text text-anchor="start" x="726" y="-3187.4" font-family="Times New Roman,serif" font-size="14.00">+ autonomousInit()</text>
<text text-anchor="start" x="726" y="-3163.4" font-family="Times New Roman,serif" font-size="14.00">+ autonomousPeriodic()</text>
<text text-anchor="start" x="726" y="-3139.4" font-family="Times New Roman,serif" font-size="14.00">+ disabledExit()</text>
<text text-anchor="start" x="726" y="-3115.4" font-family="Times New Roman,serif" font-size="14.00">+ disabledInit()</text>
<text text-anchor="start" x="726" y="-3091.4" font-family="Times New Roman,serif" font-size="14.00">+ disabledPeriodic()</text>
<text text-anchor="start" x="726" y="-3067.4" font-family="Times New Roman,serif" font-size="14.00">+ robotInit()</text>
<text text-anchor="start" x="726" y="-3043.4" font-family="Times New Roman,serif" font-size="14.00">+ robotPeriodic()</text>
<text text-anchor="start" x="726" y="-3019.4" font-family="Times New Roman,serif" font-size="14.00">+ teleopExit()</text>
<text text-anchor="start" x="726" y="-2995.4" font-family="Times New Roman,serif" font-size="14.00">+ teleopInit()</text>
<text text-anchor="start" x="726" y="-2971.4" font-family="Times New Roman,serif" font-size="14.00">+ teleopPeriodic()</text>
<text text-anchor="start" x="726" y="-2947.4" font-family="Times New Roman,serif" font-size="14.00">+ testExit()</text>
<text text-anchor="start" x="726" y="-2923.4" font-family="Times New Roman,serif" font-size="14.00">+ testInit()</text>
<text text-anchor="start" x="726" y="-2899.4" font-family="Times New Roman,serif" font-size="14.00">+ testPeriodic()</text>
<polygon fill="black" stroke="black" points="721,-3276 721,-3276 990,-3276 990,-3276 721,-3276"/>
<polygon fill="black" stroke="black" points="721,-3228 721,-3228 990,-3228 990,-3228 721,-3228"/>
<polygon fill="none" stroke="black" points="720.5,-2891 720.5,-3301 989.5,-3301 989.5,-2891 720.5,-2891"/>
</g>
<!-- RobotContainer529299155 -->
<g id="node2" class="node">
<title>RobotContainer529299155</title>
<polygon fill="#ffffff" stroke="transparent" points="1043.5,-2821.4 666.5,-2821.4 666.5,-2291.4 1043.5,-2291.4 1043.5,-2821.4"/>
<text text-anchor="start" x="672" y="-2803.8" font-family="Times New Roman,serif" font-size="14.00">(C)RobotContainer</text>
<text text-anchor="start" x="672" y="-2779.8" font-family="Times New Roman,serif" font-size="14.00">&#45; &#160;&#160;actualXbox: Joystick [0..1]</text>
<text text-anchor="start" x="672" y="-2755.8" font-family="Times New Roman,serif" font-size="14.00">&#45; &#160;&#160;additionalJoy: Joystick [0..1]</text>
<text text-anchor="start" x="672" y="-2731.8" font-family="Times New Roman,serif" font-size="14.00">&#45; &#160;&#160;allFour: TestFourModules [0..1]</text>
<text text-anchor="start" x="672" y="-2707.8" font-family="Times New Roman,serif" font-size="14.00">&#45; &#160;&#160;auto: SwerveAuto [0..1]</text>
<text text-anchor="start" x="672" y="-2683.8" font-family="Times New Roman,serif" font-size="14.00">&#45; &#160;&#160;autoOrNot: boolean [1]</text>
<text text-anchor="start" x="672" y="-2659.8" font-family="Times New Roman,serif" font-size="14.00">&#45; &#160;&#160;blueAllianceOrNot: boolean [1]</text>
<text text-anchor="start" x="672" y="-2635.8" font-family="Times New Roman,serif" font-size="14.00">&#45; &#160;&#160;crabDrive: CrabDrive [0..1]</text>
<text text-anchor="start" x="672" y="-2611.8" font-family="Times New Roman,serif" font-size="14.00">+ &#160;&#160;isDataLog: boolean [1]</text>
<text text-anchor="start" x="672" y="-2587.8" font-family="Times New Roman,serif" font-size="14.00">&#45; &#160;&#160;rotationAxis: int [1]</text>
<text text-anchor="start" x="672" y="-2563.8" font-family="Times New Roman,serif" font-size="14.00">&#45; &#160;&#160;setAlliance: boolean [1]</text>
<text text-anchor="start" x="672" y="-2539.8" font-family="Times New Roman,serif" font-size="14.00">+ &#160;&#160;startpose: Pose2d [0..1]</text>
<text text-anchor="start" x="672" y="-2515.8" font-family="Times New Roman,serif" font-size="14.00">&#45; &#160;&#160;strafeAxis: int [1]</text>
<text text-anchor="start" x="672" y="-2491.8" font-family="Times New Roman,serif" font-size="14.00">&#45; &#160;&#160;swerve: SwerveDrive [0..1]</text>
<text text-anchor="start" x="672" y="-2467.8" font-family="Times New Roman,serif" font-size="14.00"># &#160;&#160;swerveMods: SwerveModuleIO[] [0..*]</text>
<text text-anchor="start" x="672" y="-2443.8" font-family="Times New Roman,serif" font-size="14.00">&#45; &#160;&#160;teleop: SwerveTeleop [0..1]</text>
<text text-anchor="start" x="671.67" y="-2419.8" font-family="Times New Roman,serif" font-size="14.00">&#45; &#160;&#160;teleopCommandChooser: SendableChooser&lt;Command&gt; [0..1]</text>
<text text-anchor="start" x="672" y="-2395.8" font-family="Times New Roman,serif" font-size="14.00">&#45; &#160;&#160;translationAxis: int [1]</text>
<text text-anchor="start" x="672" y="-2371.8" font-family="Times New Roman,serif" font-size="14.00">&#45; configureBindings()</text>
<text text-anchor="start" x="672" y="-2347.8" font-family="Times New Roman,serif" font-size="14.00">+ getAutonomousCommand(): Command</text>
<text text-anchor="start" x="672" y="-2323.8" font-family="Times New Roman,serif" font-size="14.00">+ getSimOrNot(): boolean</text>
<text text-anchor="start" x="672" y="-2299.8" font-family="Times New Roman,serif" font-size="14.00">+ initCommandInTeleop()</text>
<polygon fill="black" stroke="black" points="667,-2796.4 667,-2796.4 1044,-2796.4 1044,-2796.4 667,-2796.4"/>
<polygon fill="black" stroke="black" points="667,-2388.4 667,-2388.4 1044,-2388.4 1044,-2388.4 667,-2388.4"/>
<polygon fill="none" stroke="black" points="666.5,-2291.4 666.5,-2821.4 1043.5,-2821.4 1043.5,-2291.4 666.5,-2291.4"/>
</g>
<!-- Robot529299155&#45;&gt;RobotContainer529299155 -->
<g id="edge2" class="edge">
<title>Robot529299155&#45;&gt;RobotContainer529299155</title>
<path fill="none" stroke="black" d="M855,-2890.99C855,-2871.55 855,-2851.63 855,-2831.67"/>
<polygon fill="black" stroke="black" points="858.5,-2831.55 855,-2821.55 851.5,-2831.55 858.5,-2831.55"/>
<text text-anchor="middle" x="906.32" y="-2860.4" font-family="Times New Roman,serif" font-size="14.00">m_robotContainer</text>
<text text-anchor="middle" x="906.32" y="-2843.6" font-family="Times New Roman,serif" font-size="14.00">[0..1]</text>
</g>
<!-- CrabDrive1359119171 -->
<g id="node3" class="node">
<title>CrabDrive1359119171</title>
<polygon fill="#ffffff" stroke="transparent" points="302,-2151 24,-2151 24,-1909 302,-1909 302,-2151"/>
<text text-anchor="start" x="29" y="-2133.4" font-family="Times New Roman,serif" font-size="14.00">(C)CrabDrive</text>
<text text-anchor="start" x="29" y="-2109.4" font-family="Times New Roman,serif" font-size="14.00">&#45; &#160;&#160;joyUtil: ArcadeJoystickUtil [0..1]</text>
<text text-anchor="start" x="29" y="-2085.4" font-family="Times New Roman,serif" font-size="14.00">&#45; &#160;&#160;swerve: SwerveDrive [0..1]</text>
<text text-anchor="start" x="28.67" y="-2061.4" font-family="Times New Roman,serif" font-size="14.00">&#45; &#160;&#160;translationLimiter: AsymmetricLimiter [0..1]</text>
<text text-anchor="start" x="29" y="-2037.4" font-family="Times New Roman,serif" font-size="14.00">&#45; &#160;&#160;x: DoubleSupplier [0..1]</text>
<text text-anchor="start" x="29" y="-2013.4" font-family="Times New Roman,serif" font-size="14.00">&#45; &#160;&#160;xMult: double [1]</text>
<text text-anchor="start" x="29" y="-1989.4" font-family="Times New Roman,serif" font-size="14.00">&#45; &#160;&#160;y: DoubleSupplier [0..1]</text>
<text text-anchor="start" x="29" y="-1965.4" font-family="Times New Roman,serif" font-size="14.00">&#45; &#160;&#160;yMult: double [1]</text>
<text text-anchor="start" x="29" y="-1941.4" font-family="Times New Roman,serif" font-size="14.00">+ end(interrupted: boolean)</text>
<text text-anchor="start" x="29" y="-1917.4" font-family="Times New Roman,serif" font-size="14.00">+ execute()</text>
<polygon fill="black" stroke="black" points="24,-2126 24,-2126 302,-2126 302,-2126 24,-2126"/>
<polygon fill="black" stroke="black" points="24,-1958 24,-1958 302,-1958 302,-1958 24,-1958"/>
<polygon fill="none" stroke="black" points="24,-1909 24,-2151 302,-2151 302,-1909 24,-1909"/>
</g>
<!-- RobotContainer529299155&#45;&gt;CrabDrive1359119171 -->
<g id="edge3" class="edge">
<title>RobotContainer529299155&#45;&gt;CrabDrive1359119171</title>
<path fill="none" stroke="black" d="M666.26,-2443.13C509.14,-2349.67 311,-2231.8 311,-2231.8 311,-2231.8 286.75,-2198.9 257.88,-2159.73"/>
<polygon fill="black" stroke="black" points="260.41,-2157.26 251.66,-2151.28 254.77,-2161.41 260.41,-2157.26"/>
<text text-anchor="middle" x="405.98" y="-2260.8" font-family="Times New Roman,serif" font-size="14.00">crabDrive</text>
<text text-anchor="middle" x="405.98" y="-2244" font-family="Times New Roman,serif" font-size="14.00">[0..1]</text>
</g>
<!-- SwerveAuto1359119171 -->
<g id="node4" class="node">
<title>SwerveAuto1359119171</title>
<polygon fill="#ffffff" stroke="transparent" points="502,-2055 320,-2055 320,-2005 502,-2005 502,-2055"/>
<text text-anchor="start" x="325" y="-2037.4" font-family="Times New Roman,serif" font-size="14.00">(C)SwerveAuto</text>
<text text-anchor="start" x="324.9" y="-2013.4" font-family="Times New Roman,serif" font-size="14.00"># &#160;&#160;swerve: SwerveDrive [0..1]</text>
<polygon fill="black" stroke="black" points="320,-2030 320,-2030 502,-2030 502,-2030 320,-2030"/>
<polygon fill="none" stroke="black" points="320,-2005 320,-2055 502,-2055 502,-2005 320,-2005"/>
</g>
<!-- RobotContainer529299155&#45;&gt;SwerveAuto1359119171 -->
<g id="edge4" class="edge">
<title>RobotContainer529299155&#45;&gt;SwerveAuto1359119171</title>
<path fill="none" stroke="black" d="M666.39,-2377.98C586.27,-2302.61 511,-2231.8 511,-2231.8 511,-2231.8 455.96,-2121.28 427.55,-2064.22"/>
<polygon fill="black" stroke="black" points="430.65,-2062.61 423.06,-2055.22 424.39,-2065.73 430.65,-2062.61"/>
<text text-anchor="middle" x="568.16" y="-2260.8" font-family="Times New Roman,serif" font-size="14.00">auto</text>
<text text-anchor="middle" x="568.16" y="-2244" font-family="Times New Roman,serif" font-size="14.00">[0..1]</text>
</g>
<!-- SwerveTeleop1359119171 -->
<g id="node5" class="node">
<title>SwerveTeleop1359119171</title>
<polygon fill="#ffffff" stroke="transparent" points="798,-2187 520,-2187 520,-1873 798,-1873 798,-2187"/>
<text text-anchor="start" x="525" y="-2169.4" font-family="Times New Roman,serif" font-size="14.00">(C)SwerveTeleop</text>
<text text-anchor="start" x="525" y="-2145.4" font-family="Times New Roman,serif" font-size="14.00">&#45; &#160;&#160;joyUtil: ArcadeJoystickUtil [0..1]</text>
<text text-anchor="start" x="525" y="-2121.4" font-family="Times New Roman,serif" font-size="14.00">&#45; &#160;&#160;robotCentricSup: BooleanSupplier [0..1]</text>
<text text-anchor="start" x="525" y="-2097.4" font-family="Times New Roman,serif" font-size="14.00">&#45; &#160;&#160;rotationLimiter: AsymmetricLimiter [0..1]</text>
<text text-anchor="start" x="525" y="-2073.4" font-family="Times New Roman,serif" font-size="14.00">&#45; &#160;&#160;rotationSup: DoubleSupplier [0..1]</text>
<text text-anchor="start" x="525" y="-2049.4" font-family="Times New Roman,serif" font-size="14.00">&#45; &#160;&#160;swerve: SwerveDrive [0..1]</text>
<text text-anchor="start" x="524.67" y="-2025.4" font-family="Times New Roman,serif" font-size="14.00">&#45; &#160;&#160;translationLimiter: AsymmetricLimiter [0..1]</text>
<text text-anchor="start" x="525" y="-2001.4" font-family="Times New Roman,serif" font-size="14.00">&#45; &#160;&#160;x: DoubleSupplier [0..1]</text>
<text text-anchor="start" x="525" y="-1977.4" font-family="Times New Roman,serif" font-size="14.00">&#45; &#160;&#160;xMult: double [1]</text>
<text text-anchor="start" x="525" y="-1953.4" font-family="Times New Roman,serif" font-size="14.00">&#45; &#160;&#160;y: DoubleSupplier [0..1]</text>
<text text-anchor="start" x="525" y="-1929.4" font-family="Times New Roman,serif" font-size="14.00">&#45; &#160;&#160;yMult: double [1]</text>
<text text-anchor="start" x="525" y="-1905.4" font-family="Times New Roman,serif" font-size="14.00">+ end(interrupted: boolean)</text>
<text text-anchor="start" x="525" y="-1881.4" font-family="Times New Roman,serif" font-size="14.00">+ execute()</text>
<polygon fill="black" stroke="black" points="520,-2162 520,-2162 798,-2162 798,-2162 520,-2162"/>
<polygon fill="black" stroke="black" points="520,-1922 520,-1922 798,-1922 798,-1922 520,-1922"/>
<polygon fill="none" stroke="black" points="520,-1873 520,-2187 798,-2187 798,-1873 520,-1873"/>
</g>
<!-- RobotContainer529299155&#45;&gt;SwerveTeleop1359119171 -->
<g id="edge7" class="edge">
<title>RobotContainer529299155&#45;&gt;SwerveTeleop1359119171</title>
<path fill="none" stroke="black" d="M756.28,-2291.28C744.25,-2259.09 732.24,-2226.94 720.96,-2196.77"/>
<polygon fill="black" stroke="black" points="724.1,-2195.19 717.32,-2187.05 717.55,-2197.64 724.1,-2195.19"/>
<text text-anchor="middle" x="765.11" y="-2260.8" font-family="Times New Roman,serif" font-size="14.00">teleop</text>
<text text-anchor="middle" x="765.11" y="-2244" font-family="Times New Roman,serif" font-size="14.00">[0..1]</text>
</g>
<!-- TestFourModules1359119171 -->
<g id="node6" class="node">
<title>TestFourModules1359119171</title>
<polygon fill="#ffffff" stroke="transparent" points="1131.5,-2199 816.5,-2199 816.5,-1861 1131.5,-1861 1131.5,-2199"/>
<text text-anchor="start" x="822" y="-2181.4" font-family="Times New Roman,serif" font-size="14.00">(C)TestFourModules</text>
<text text-anchor="start" x="822" y="-2157.4" font-family="Times New Roman,serif" font-size="14.00">&#45; &#160;&#160;angle: double [1]</text>
<text text-anchor="start" x="822" y="-2133.4" font-family="Times New Roman,serif" font-size="14.00">&#45; &#160;&#160;driveVoltage: double [1]</text>
<text text-anchor="start" x="822" y="-2109.4" font-family="Times New Roman,serif" font-size="14.00">&#45; &#160;&#160;index: int [1]</text>
<text text-anchor="start" x="822" y="-2085.4" font-family="Times New Roman,serif" font-size="14.00">&#45; &#160;&#160;joy: Joystick [0..1]</text>
<text text-anchor="start" x="822" y="-2061.4" font-family="Times New Roman,serif" font-size="14.00">&#45; &#160;&#160;modeStrings: String[] [0..*]</text>
<text text-anchor="start" x="821.78" y="-2037.4" font-family="Times New Roman,serif" font-size="14.00">&#45; &#160;&#160;pidOrPowerMode: SendableChooser&lt;String&gt; [0..1]</text>
<text text-anchor="start" x="822" y="-2013.4" font-family="Times New Roman,serif" font-size="14.00">&#45; &#160;&#160;swerve: SwerveDrive [0..1]</text>
<text text-anchor="start" x="822" y="-1989.4" font-family="Times New Roman,serif" font-size="14.00">&#45; &#160;&#160;turnVoltage: double [1]</text>
<text text-anchor="start" x="822" y="-1965.4" font-family="Times New Roman,serif" font-size="14.00">&#45; &#160;&#160;velocity: double [1]</text>
<text text-anchor="start" x="822" y="-1941.4" font-family="Times New Roman,serif" font-size="14.00">+ end(interrupted: boolean)</text>
<text text-anchor="start" x="822" y="-1917.4" font-family="Times New Roman,serif" font-size="14.00">+ execute()</text>
<text text-anchor="start" x="822" y="-1893.4" font-family="Times New Roman,serif" font-size="14.00">+ initialize()</text>
<text text-anchor="start" x="822" y="-1869.4" font-family="Times New Roman,serif" font-size="14.00">+ isFinished(): boolean</text>
<polygon fill="black" stroke="black" points="817,-2174 817,-2174 1132,-2174 1132,-2174 817,-2174"/>
<polygon fill="black" stroke="black" points="817,-1958 817,-1958 1132,-1958 1132,-1958 817,-1958"/>
<polygon fill="none" stroke="black" points="816.5,-1861 816.5,-2199 1131.5,-2199 1131.5,-1861 816.5,-1861"/>
</g>
<!-- RobotContainer529299155&#45;&gt;TestFourModules1359119171 -->
<g id="edge8" class="edge">
<title>RobotContainer529299155&#45;&gt;TestFourModules1359119171</title>
<path fill="none" stroke="black" d="M914.94,-2291.28C921.24,-2263.49 927.54,-2235.73 933.55,-2209.24"/>
<polygon fill="black" stroke="black" points="937.04,-2209.69 935.84,-2199.16 930.21,-2208.14 937.04,-2209.69"/>
<text text-anchor="middle" x="945.22" y="-2260.8" font-family="Times New Roman,serif" font-size="14.00">allFour</text>
<text text-anchor="middle" x="945.22" y="-2244" font-family="Times New Roman,serif" font-size="14.00">[0..1]</text>
</g>
<!-- SwerveDrive2066581137 -->
<g id="node7" class="node">
<title>SwerveDrive2066581137</title>
<polygon fill="#ffffff" stroke="transparent" points="1038,-1768.6 480,-1768.6 480,-1214.6 1038,-1214.6 1038,-1768.6"/>
<text text-anchor="start" x="485" y="-1751" font-family="Times New Roman,serif" font-size="14.00">(C)SwerveDrive</text>
<text text-anchor="start" x="485" y="-1727" font-family="Times New Roman,serif" font-size="14.00">&#45; &#160;&#160;field: Field2d [0..1]</text>
<text text-anchor="start" x="485" y="-1703" font-family="Times New Roman,serif" font-size="14.00">&#45; &#160;&#160;kinematics: SwerveDriveKinematics [0..1]</text>
<text text-anchor="start" x="485" y="-1679" font-family="Times New Roman,serif" font-size="14.00">&#45; &#160;&#160;moduleIO: SwerveModuleIO[] [0..*]</text>
<text text-anchor="start" x="485" y="-1655" font-family="Times New Roman,serif" font-size="14.00">&#45; &#160;&#160;modulePositions: SwerveModulePosition[] [0..*]</text>
<text text-anchor="start" x="485" y="-1631" font-family="Times New Roman,serif" font-size="14.00">&#45; &#160;&#160;poseEstimator: SwerveDrivePoseEstimator [0..1]</text>
<text text-anchor="start" x="484.65" y="-1607" font-family="Times New Roman,serif" font-size="14.00">+ drive(translation: Translation2d, rotation: double, fieldRelative: boolean, isOpenLoop: boolean)</text>
<text text-anchor="start" x="485" y="-1583" font-family="Times New Roman,serif" font-size="14.00">+ driveRelative(speeds: ChassisSpeeds)</text>
<text text-anchor="start" x="485" y="-1559" font-family="Times New Roman,serif" font-size="14.00">+ getActualStates(): SwerveModuleState[]</text>
<text text-anchor="start" x="485" y="-1535" font-family="Times New Roman,serif" font-size="14.00">+ getField(): Field2d</text>
<text text-anchor="start" x="485" y="-1511" font-family="Times New Roman,serif" font-size="14.00">+ getHeading(): double</text>
<text text-anchor="start" x="485" y="-1487" font-family="Times New Roman,serif" font-size="14.00">+ getPoseFromEstimator(): Pose2d</text>
<text text-anchor="start" x="485" y="-1463" font-family="Times New Roman,serif" font-size="14.00">+ getRobotRelativeSpeeds(): ChassisSpeeds</text>
<text text-anchor="start" x="485" y="-1439" font-family="Times New Roman,serif" font-size="14.00">+ getRotation(): Rotation2d</text>
<text text-anchor="start" x="485" y="-1415" font-family="Times New Roman,serif" font-size="14.00">+ getSetpointStates(): SwerveModuleState[]</text>
<text text-anchor="start" x="485" y="-1391" font-family="Times New Roman,serif" font-size="14.00">+ getTurnRate(): double</text>
<text text-anchor="start" x="485" y="-1367" font-family="Times New Roman,serif" font-size="14.00">+ periodic()</text>
<text text-anchor="start" x="485" y="-1343" font-family="Times New Roman,serif" font-size="14.00">+ resetPose(pose: Pose2d)</text>
<text text-anchor="start" x="485" y="-1319" font-family="Times New Roman,serif" font-size="14.00">+ setModuleSetpoints(driveVel: double, turnPos: double, index: int)</text>
<text text-anchor="start" x="485" y="-1295" font-family="Times New Roman,serif" font-size="14.00">+ setModuleVoltage(driveVoltage: double, turnVoltage: double, index: int)</text>
<text text-anchor="start" x="485" y="-1271" font-family="Times New Roman,serif" font-size="14.00">+ setModuleVoltages(driveVoltage: double, turnVoltage: double)</text>
<text text-anchor="start" x="485" y="-1247" font-family="Times New Roman,serif" font-size="14.00">+ simulationPeriodic()</text>
<text text-anchor="start" x="485" y="-1223" font-family="Times New Roman,serif" font-size="14.00">+ stopMotors()</text>
<polygon fill="black" stroke="black" points="480,-1743.6 480,-1743.6 1038,-1743.6 1038,-1743.6 480,-1743.6"/>
<polygon fill="black" stroke="black" points="480,-1623.6 480,-1623.6 1038,-1623.6 1038,-1623.6 480,-1623.6"/>
<polygon fill="none" stroke="black" points="480,-1214.6 480,-1768.6 1038,-1768.6 1038,-1214.6 480,-1214.6"/>
</g>
<!-- RobotContainer529299155&#45;&gt;SwerveDrive2066581137 -->
<g id="edge5" class="edge">
<title>RobotContainer529299155&#45;&gt;SwerveDrive2066581137</title>
<path fill="none" stroke="black" d="M1043.73,-2344.07C1098.57,-2282.67 1144,-2231.8 1144,-2231.8 1144,-2231.8 1144,-1853 1144,-1853 1144,-1853 1042,-1801.4 1042,-1801.4 1042,-1801.4 1033.3,-1791.91 1018.96,-1776.26"/>
<polygon fill="black" stroke="black" points="1021.32,-1773.65 1011.98,-1768.65 1016.16,-1778.38 1021.32,-1773.65"/>
<text text-anchor="middle" x="1163.82" y="-2034.2" font-family="Times New Roman,serif" font-size="14.00">swerve</text>
<text text-anchor="middle" x="1163.82" y="-2017.4" font-family="Times New Roman,serif" font-size="14.00">[0..1]</text>
</g>
<!-- SwerveModuleIOSim2066581137 -->
<g id="node8" class="node">
<title>SwerveModuleIOSim2066581137</title>
<polygon fill="#ffffff" stroke="transparent" points="1006,-1145 704,-1145 704,-639 1006,-639 1006,-1145"/>
<text text-anchor="start" x="709" y="-1127.4" font-family="Times New Roman,serif" font-size="14.00">(C)SwerveModuleIOSim</text>
<text text-anchor="start" x="709" y="-1103.4" font-family="Times New Roman,serif" font-size="14.00">&#45; &#160;&#160;drivePID: PIDController [0..1]</text>
<text text-anchor="start" x="709" y="-1079.4" font-family="Times New Roman,serif" font-size="14.00">&#45; &#160;&#160;driveSim: FlywheelSim [0..1]</text>
<text text-anchor="start" x="709" y="-1055.4" font-family="Times New Roman,serif" font-size="14.00">&#45; &#160;&#160;driveVolts: double [1]</text>
<text text-anchor="start" x="708.5" y="-1031.4" font-family="Times New Roman,serif" font-size="14.00">&#45; &#160;&#160;flywheelPlant: LinearSystem&lt;N1, N1, N1&gt; [0..1]</text>
<text text-anchor="start" x="709" y="-1007.4" font-family="Times New Roman,serif" font-size="14.00">&#45; &#160;&#160;integratedPosition: double [1]</text>
<text text-anchor="start" x="709" y="-983.4" font-family="Times New Roman,serif" font-size="14.00">&#45; &#160;&#160;num: int [1]</text>
<text text-anchor="start" x="709" y="-959.4" font-family="Times New Roman,serif" font-size="14.00">&#45; &#160;&#160;state: SwerveModuleState [0..1]</text>
<text text-anchor="start" x="709" y="-935.4" font-family="Times New Roman,serif" font-size="14.00">&#45; &#160;&#160;turnPID: PIDController [0..1]</text>
<text text-anchor="start" x="709" y="-911.4" font-family="Times New Roman,serif" font-size="14.00">&#45; &#160;&#160;turnSim: DCMotorSim [0..1]</text>
<text text-anchor="start" x="709" y="-887.4" font-family="Times New Roman,serif" font-size="14.00">&#45; &#160;&#160;turnVolts: double [1]</text>
<text text-anchor="start" x="709" y="-863.4" font-family="Times New Roman,serif" font-size="14.00">+ getActualModuleState(): SwerveModuleState</text>
<text text-anchor="start" x="709" y="-839.4" font-family="Times New Roman,serif" font-size="14.00">+ getDesiredState(): SwerveModuleState</text>
<text text-anchor="start" x="709" y="-815.4" font-family="Times New Roman,serif" font-size="14.00">+ getNum(): int</text>
<text text-anchor="start" x="709" y="-791.4" font-family="Times New Roman,serif" font-size="14.00">+ getPosition(): SwerveModulePosition</text>
<text text-anchor="start" x="709" y="-767.4" font-family="Times New Roman,serif" font-size="14.00">+ getTurnPositionInRad(): double</text>
<text text-anchor="start" x="709" y="-743.4" font-family="Times New Roman,serif" font-size="14.00">+ setDesiredState(state: SwerveModuleState)</text>
<text text-anchor="start" x="709" y="-719.4" font-family="Times New Roman,serif" font-size="14.00">+ setDriveVoltage(voltage: double)</text>
<text text-anchor="start" x="709" y="-695.4" font-family="Times New Roman,serif" font-size="14.00">+ setTurnVoltage(voltage: double)</text>
<text text-anchor="start" x="709" y="-671.4" font-family="Times New Roman,serif" font-size="14.00">+ updateSim()</text>
<text text-anchor="start" x="709" y="-647.4" font-family="Times New Roman,serif" font-size="14.00">+ updateTelemetry()</text>
<polygon fill="black" stroke="black" points="704,-1120 704,-1120 1006,-1120 1006,-1120 704,-1120"/>
<polygon fill="black" stroke="black" points="704,-880 704,-880 1006,-880 1006,-880 704,-880"/>
<polygon fill="none" stroke="black" points="704,-639 704,-1145 1006,-1145 1006,-639 704,-639"/>
</g>
<!-- RobotContainer529299155&#45;&gt;SwerveModuleIOSim2066581137 -->
<g id="edge6" class="edge">
<title>RobotContainer529299155&#45;&gt;SwerveModuleIOSim2066581137</title>
<path fill="none" stroke="black" d="M1043.88,-2371.85C1119.04,-2298.82 1188,-2231.8 1188,-2231.8 1188,-2231.8 1188,-1853 1188,-1853 1188,-1853 1047,-1214.6 1047,-1214.6 1047,-1214.6 1029.74,-1185.69 1005.58,-1145.21"/>
<text text-anchor="middle" x="1220.77" y="-1830.4" font-family="Times New Roman,serif" font-size="14.00">swerveMods</text>
<text text-anchor="middle" x="1220.77" y="-1813.6" font-family="Times New Roman,serif" font-size="14.00">[0..*]</text>
</g>
<!-- CrabDrive1359119171&#45;&gt;SwerveDrive2066581137 -->
<g id="edge1" class="edge">
<title>CrabDrive1359119171&#45;&gt;SwerveDrive2066581137</title>
<path fill="none" stroke="black" d="M264.17,-1908.69C290.19,-1877.75 311,-1853 311,-1853 311,-1853 384.4,-1793.95 471.78,-1723.66"/>
<polygon fill="black" stroke="black" points="474.13,-1726.26 479.73,-1717.26 469.75,-1720.8 474.13,-1726.26"/>
<text text-anchor="middle" x="376.82" y="-1830.4" font-family="Times New Roman,serif" font-size="14.00">swerve</text>
<text text-anchor="middle" x="376.82" y="-1813.6" font-family="Times New Roman,serif" font-size="14.00">[0..1]</text>
</g>
<!-- SwerveAuto1359119171&#45;&gt;SwerveDrive2066581137 -->
<g id="edge9" class="edge">
<title>SwerveAuto1359119171&#45;&gt;SwerveDrive2066581137</title>
<path fill="none" stroke="black" d="M424.69,-2004.9C452.08,-1956.7 511,-1853 511,-1853 511,-1853 532.6,-1821.61 563.05,-1777.36"/>
<polygon fill="black" stroke="black" points="566.05,-1779.18 568.83,-1768.96 560.28,-1775.21 566.05,-1779.18"/>
<text text-anchor="middle" x="555.82" y="-1830.4" font-family="Times New Roman,serif" font-size="14.00">swerve</text>
<text text-anchor="middle" x="555.82" y="-1813.6" font-family="Times New Roman,serif" font-size="14.00">[0..1]</text>
</g>
<!-- SwerveTeleop1359119171&#45;&gt;SwerveDrive2066581137 -->
<g id="edge12" class="edge">
<title>SwerveTeleop1359119171&#45;&gt;SwerveDrive2066581137</title>
<path fill="none" stroke="black" d="M688.13,-1872.77C693.66,-1843.06 699.62,-1811.12 705.64,-1778.82"/>
<polygon fill="black" stroke="black" points="709.12,-1779.26 707.51,-1768.79 702.24,-1777.98 709.12,-1779.26"/>
<text text-anchor="middle" x="717.82" y="-1830.4" font-family="Times New Roman,serif" font-size="14.00">swerve</text>
<text text-anchor="middle" x="717.82" y="-1813.6" font-family="Times New Roman,serif" font-size="14.00">[0..1]</text>
</g>
<!-- TestFourModules1359119171&#45;&gt;SwerveDrive2066581137 -->
<g id="edge13" class="edge">
<title>TestFourModules1359119171&#45;&gt;SwerveDrive2066581137</title>
<path fill="none" stroke="black" d="M894.76,-1860.83C889.57,-1849.81 886.36,-1843 886.36,-1843 886.36,-1843 876.74,-1816.53 862.79,-1778.14"/>
<polygon fill="black" stroke="black" points="866.05,-1776.89 859.35,-1768.69 859.48,-1779.28 866.05,-1776.89"/>
<text text-anchor="middle" x="905.82" y="-1830.4" font-family="Times New Roman,serif" font-size="14.00">swerve</text>
<text text-anchor="middle" x="905.82" y="-1813.6" font-family="Times New Roman,serif" font-size="14.00">[0..1]</text>
</g>
<!-- SwerveDrive2066581137&#45;&gt;SwerveModuleIOSim2066581137 -->
<g id="edge10" class="edge">
<title>SwerveDrive2066581137&#45;&gt;SwerveModuleIOSim2066581137</title>
<path fill="none" stroke="black" d="M773.52,-1214.55C775.15,-1183.64 776.24,-1163 776.24,-1163 776.24,-1163 778.16,-1156.41 781.4,-1145.28"/>
<text text-anchor="middle" x="804.38" y="-1184" font-family="Times New Roman,serif" font-size="14.00">moduleIO</text>
<text text-anchor="middle" x="804.38" y="-1167.2" font-family="Times New Roman,serif" font-size="14.00">[0..*]</text>
</g>
<!-- SwerveModuleIOSparkMax2066581137 -->
<g id="node9" class="node">
<title>SwerveModuleIOSparkMax2066581137</title>
<polygon fill="#ffffff" stroke="transparent" points="993.5,-602 716.5,-602 716.5,-24 993.5,-24 993.5,-602"/>
<text text-anchor="start" x="722" y="-584.4" font-family="Times New Roman,serif" font-size="14.00">(C)SwerveModuleIOSparkMax</text>
<text text-anchor="start" x="722" y="-560.4" font-family="Times New Roman,serif" font-size="14.00">&#45; &#160;&#160;driveEncoder: RelativeEncoder [0..1]</text>
<text text-anchor="start" x="722" y="-536.4" font-family="Times New Roman,serif" font-size="14.00">&#45; &#160;&#160;drivePID: SparkPIDController [0..1]</text>
<text text-anchor="start" x="722" y="-512.4" font-family="Times New Roman,serif" font-size="14.00">&#45; &#160;&#160;driveSparkMax: CANSparkMax [0..1]</text>
<text text-anchor="start" x="722" y="-488.4" font-family="Times New Roman,serif" font-size="14.00">&#45; &#160;&#160;driveVolts: double [1]</text>
<text text-anchor="start" x="722" y="-464.4" font-family="Times New Roman,serif" font-size="14.00">&#45; &#160;&#160;num: int [1]</text>
<text text-anchor="start" x="722" y="-440.4" font-family="Times New Roman,serif" font-size="14.00"># &#160;&#160;offset: double [1]</text>
<text text-anchor="start" x="722" y="-416.4" font-family="Times New Roman,serif" font-size="14.00">&#45; &#160;&#160;state: SwerveModuleState [0..1]</text>
<text text-anchor="start" x="722" y="-392.4" font-family="Times New Roman,serif" font-size="14.00">&#45; &#160;&#160;turnEncoder: CANCoder [0..1]</text>
<text text-anchor="start" x="722" y="-368.4" font-family="Times New Roman,serif" font-size="14.00">&#45; &#160;&#160;turnPID: PIDController [0..1]</text>
<text text-anchor="start" x="722" y="-344.4" font-family="Times New Roman,serif" font-size="14.00">&#45; &#160;&#160;turnSparkMax: CANSparkMax [0..1]</text>
<text text-anchor="start" x="722" y="-320.4" font-family="Times New Roman,serif" font-size="14.00">&#45; &#160;&#160;turnVolts: double [1]</text>
<text text-anchor="start" x="721.7" y="-296.4" font-family="Times New Roman,serif" font-size="14.00">+ getActualModuleState(): SwerveModuleState</text>
<text text-anchor="start" x="722" y="-272.4" font-family="Times New Roman,serif" font-size="14.00">+ getDesiredState(): SwerveModuleState</text>
<text text-anchor="start" x="722" y="-248.4" font-family="Times New Roman,serif" font-size="14.00">+ getNum(): int</text>
<text text-anchor="start" x="722" y="-224.4" font-family="Times New Roman,serif" font-size="14.00">+ getPosition(): SwerveModulePosition</text>
<text text-anchor="start" x="722" y="-200.4" font-family="Times New Roman,serif" font-size="14.00">+ getTurnPositionInRad(): double</text>
<text text-anchor="start" x="722" y="-176.4" font-family="Times New Roman,serif" font-size="14.00">+ resetEncoders()</text>
<text text-anchor="start" x="722" y="-152.4" font-family="Times New Roman,serif" font-size="14.00">+ setDesiredState(state: SwerveModuleState)</text>
<text text-anchor="start" x="722" y="-128.4" font-family="Times New Roman,serif" font-size="14.00">+ setDriveBrakeMode(enable: boolean)</text>
<text text-anchor="start" x="722" y="-104.4" font-family="Times New Roman,serif" font-size="14.00">+ setDriveVoltage(volts: double)</text>
<text text-anchor="start" x="722" y="-80.4" font-family="Times New Roman,serif" font-size="14.00">+ setTurnBrakeMode(enable: boolean)</text>
<text text-anchor="start" x="722" y="-56.4" font-family="Times New Roman,serif" font-size="14.00">+ setTurnVoltage(volts: double)</text>
<text text-anchor="start" x="722" y="-32.4" font-family="Times New Roman,serif" font-size="14.00">+ updateTelemetry()</text>
<polygon fill="black" stroke="black" points="717,-577 717,-577 994,-577 994,-577 717,-577"/>
<polygon fill="black" stroke="black" points="717,-313 717,-313 994,-313 994,-313 717,-313"/>
<polygon fill="none" stroke="black" points="716.5,-24 716.5,-602 993.5,-602 993.5,-24 716.5,-24"/>
</g>
<!-- SwerveModuleIOSim2066581137&#45;&gt;SwerveModuleIOSparkMax2066581137 -->
<g id="edge11" class="edge">
<title>SwerveModuleIOSim2066581137&#45;&gt;SwerveModuleIOSparkMax2066581137</title>
<path fill="none" stroke="black" d="M855,-638.76C855,-626.63 855,-614.41 855,-602.2"/>
</g>
</g>
</svg>
